<svg xmlns="http://www.w3.org/2000/svg" viewBox="-1 -1 50.606 32" width="404.85" height="256"><g fill="#A63A24"><path fill-rule="evenodd" d="M4.61 30A2.4 2.4 0 0 1 2.644 26.223L20.29 1.023A2.4 2.4 0 0 1 22.256 0L29.396 0A2.4 2.4 0 0 1 31.362 3.777L13.717 28.977A2.4 2.4 0 0 1 11.751 30ZM6.454 27.6A0.96 0.96 0 0 1 5.668 26.089L21.969 2.809A0.96 0.96 0 0 1 22.755 2.4L27.552 2.4A0.96 0.96 0 0 1 28.338 3.911L12.037 27.191A0.96 0.96 0 0 1 11.251 27.6ZM7.204 26.75A0.5 0.5 0 0 1 6.794 25.963L22.549 3.463A0.5 0.5 0 0 1 22.958 3.25L26.803 3.25A0.5 0.5 0 0 1 27.212 4.037L11.457 26.537A0.5 0.5 0 0 1 11.048 26.75Z"/><path fill-rule="evenodd" d="M36.856 30A2.4 2.4 0 0 1 34.89 28.977L27.748 18.777A2.4 2.4 0 0 1 29.713 15L36.854 15A2.4 2.4 0 0 1 38.82 16.023L45.962 26.223A2.4 2.4 0 0 1 43.996 30ZM37.355 27.6A0.96 0.96 0 0 1 36.569 27.191L30.771 18.911A0.96 0.96 0 0 1 31.558 17.4L36.354 17.4A0.96 0.96 0 0 1 37.14 17.809L42.938 26.089A0.96 0.96 0 0 1 42.152 27.6ZM37.558 26.75A0.5 0.5 0 0 1 37.149 26.537L31.897 19.037A0.5 0.5 0 0 1 32.307 18.25L36.151 18.25A0.5 0.5 0 0 1 36.561 18.463L41.812 25.963A0.5 0.5 0 0 1 41.403 26.75Z"/></g></svg>