<svg xmlns="http://www.w3.org/2000/svg" viewBox="-1 -1 131.7 32" width="1053.6" height="256"><g fill="#E9ECEA"><g fill="#A63A24"><path d="M2.2 30A2.2 2.2 0 0 1 0 27.8L0 19.26A2.2 2.2 0 0 1 0.398 17.998L11.198 2.574A2.2 2.2 0 0 1 14.802 2.574L25.602 17.998A2.2 2.2 0 0 1 26 19.26L26 27.8A2.2 2.2 0 0 1 23.8 30L23.6 30A2.2 2.2 0 0 1 21.4 27.8L21.4 20.71A2.2 2.2 0 0 0 21.002 19.448L14.802 10.594A2.2 2.2 0 0 0 11.198 10.594L4.998 19.448A2.2 2.2 0 0 0 4.6 20.71L4.6 27.8A2.2 2.2 0 0 1 2.4 30Z"/><path d="M7.6 30A1.2 1.2 0 0 1 6.4 28.8L6.4 24.804A1.2 1.2 0 0 1 6.617 24.116L12.017 16.404A1.2 1.2 0 0 1 13.983 16.404L19.383 24.116A1.2 1.2 0 0 1 19.6 24.804L19.6 28.8A1.2 1.2 0 0 1 18.4 30Z"/></g><g><path d="M34 30V19.5A9.0 9.0 0 0 1 52 19.5V30H47V19.5A4.0 4.0 0 0 0 39 19.5V30Z"/><path fill-rule="evenodd" d="M54.8 20.25a9.75 9.75 0 1 0 19.5 0a9.75 9.75 0 1 0 -19.5 0ZM59.8 20.25a4.75 4.75 0 1 1 9.5 0a4.75 4.75 0 1 1 -9.5 0Z"/><path d="M69.3 10.5H74.3V30H69.3Z"/><path transform="translate(77.1 0) rotate(180 9 20.25)" d="M0 30V19.5A9.0 9.0 0 0 1 18 19.5V30H13V19.5A4.0 4.0 0 0 0 5 19.5V30Z"/><path d="M113.9 16.475A8 5.975 0 1 0 105.9 22.45L105.9 18.05A3.6 1.575 0 1 1 109.5 16.475ZM105.9 18.05A8 5.975 0 1 1 97.9 24.025L102.3 24.025A3.6 1.575 0 1 0 105.9 22.45Z"/><path d="M120.8 30A0.6 0.6 0 0 1 120.2 29.4L120.2 8.76A0.6 0.6 0 0 1 120.309 8.415L122.209 5.702A0.6 0.6 0 0 1 123.191 5.702L125.091 8.415A0.6 0.6 0 0 1 125.2 8.76L125.2 29.4A0.6 0.6 0 0 1 124.6 30ZM116.7 10.5H129.7V15.1H116.7Z"/></g></g></svg>