<svg xmlns="http://www.w3.org/2000/svg" viewBox="-1 -1 28 32" width="224" height="256"><g fill="#A63A24"><path d="M2.2 30A2.2 2.2 0 0 1 0 27.8L0 19.26A2.2 2.2 0 0 1 0.398 17.998L11.198 2.574A2.2 2.2 0 0 1 14.802 2.574L25.602 17.998A2.2 2.2 0 0 1 26 19.26L26 27.8A2.2 2.2 0 0 1 23.8 30L23.6 30A2.2 2.2 0 0 1 21.4 27.8L21.4 20.71A2.2 2.2 0 0 0 21.002 19.448L14.802 10.594A2.2 2.2 0 0 0 11.198 10.594L4.998 19.448A2.2 2.2 0 0 0 4.6 20.71L4.6 27.8A2.2 2.2 0 0 1 2.4 30Z"/><path d="M7.6 30A1.2 1.2 0 0 1 6.4 28.8L6.4 24.804A1.2 1.2 0 0 1 6.617 24.116L12.017 16.404A1.2 1.2 0 0 1 13.983 16.404L19.383 24.116A1.2 1.2 0 0 1 19.6 24.804L19.6 28.8A1.2 1.2 0 0 1 18.4 30Z"/></g></svg>